<svg width="947" height="670" viewBox="0 0 947 670" fill="none" xmlns="http://www.w3.org/2000/svg">
<g filter="url(#filter0_i_29_13)">
<path d="M345.609 157.299C335.914 160.419 325.236 170.52 321.302 180.62C312.872 201.862 322.145 226.668 341.956 236.175C346.858 238.522 352.224 239.74 357.659 239.74H433.003C511.685 239.74 517.024 239.591 523.488 236.918C532.339 233.353 540.489 225.48 545.125 216.122C550.043 205.872 550.324 189.384 545.687 180.026C541.051 170.52 534.869 163.835 526.86 159.676C522.062 157.14 516.716 155.819 511.289 155.828L434.548 155.963C387.62 155.963 347.717 156.557 345.609 157.299Z" fill="#437CA6"></path>
</g>
<path d="M357.659 239.24H433.003C472.348 239.24 493.343 239.203 505.312 238.832C517.281 238.461 520.154 237.756 523.297 236.456L523.301 236.454C531.754 233.049 539.585 225.643 544.237 216.763L544.678 215.9C547.096 210.858 548.385 204.251 548.489 197.732C548.594 191.207 547.51 184.832 545.239 180.248L545.238 180.246C540.64 170.818 534.527 164.221 526.629 160.12L526.626 160.118C521.901 157.62 516.635 156.319 511.29 156.329L434.549 156.463L425.84 156.469C405.747 156.501 387.368 156.641 373.278 156.852C365.227 156.973 358.579 157.117 353.812 157.277C351.429 157.357 349.52 157.441 348.143 157.528C347.454 157.572 346.902 157.615 346.493 157.659C346.062 157.705 345.843 157.747 345.775 157.771L345.763 157.775L345.315 157.924C340.691 159.51 335.839 162.693 331.641 166.704C327.307 170.843 323.702 175.834 321.768 180.801L321.767 180.804L321.389 181.793C313.839 202.249 322.629 225.726 341.263 235.273L342.172 235.724C347.007 238.039 352.299 239.24 357.659 239.24Z" stroke="#437CA6"></path>
<g filter="url(#filter1_i_29_13)">
<path d="M401.389 272.271C375.958 284.748 369.776 319.358 389.165 340.451C391.975 343.571 396.893 347.581 399.984 349.364C405.604 352.632 406.026 352.632 494.825 352.632C583.624 352.632 584.045 352.632 589.665 349.364C609.617 337.926 617.204 312.674 607.228 291.432C602.732 281.926 597.112 276.43 587.277 271.676C581.516 268.854 577.16 268.706 494.825 268.706H416.293C411.114 268.706 406.008 269.927 401.389 272.271Z" fill="#08233C"></path>
</g>
<path d="M494.825 352.132C539.231 352.132 561.523 352.131 573.42 351.723C579.372 351.519 582.69 351.214 584.861 350.763C587.001 350.32 588.027 349.738 589.414 348.931L589.417 348.929C609.133 337.626 616.645 312.661 606.775 291.645C602.331 282.249 596.798 276.833 587.06 272.127L587.057 272.126C584.28 270.765 581.846 270.022 569.75 269.633C557.659 269.243 535.997 269.206 494.825 269.206H416.293C411.193 269.206 406.163 270.409 401.615 272.717L401.609 272.719C376.487 285.046 370.363 319.259 389.533 340.113L389.537 340.117C392.315 343.201 397.193 347.177 400.234 348.93L400.235 348.931C401.622 349.738 402.648 350.32 404.788 350.763C406.96 351.214 410.277 351.519 416.229 351.723C428.126 352.131 450.419 352.132 494.825 352.132Z" stroke="#08233C"></path>
<path d="M307.635 278.197C330.931 278.198 349.705 294.806 349.705 315.164C349.705 335.522 330.932 352.132 307.635 352.132C284.338 352.132 265.563 335.522 265.563 315.164C265.564 294.806 284.338 278.197 307.635 278.197Z" fill="#3C6DAC" stroke="#3C6DAC"></path>
<path d="M620.892 156.539C644.15 156.54 662.962 174.495 662.962 196.592C662.962 218.69 644.15 236.645 620.892 236.645C597.634 236.645 578.821 218.69 578.821 196.592C578.821 174.494 597.634 156.539 620.892 156.539Z" fill="#9FBDDE" stroke="#9FBDDE"></path>
<mask id="path-7-outside-1_29_13" maskUnits="userSpaceOnUse" x="324" y="371" width="285" height="103" fill="black">
<rect fill="white" x="324" y="371" width="285" height="103"></rect>
<path d="M353.968 472.64C348.933 472.64 343.941 471.787 338.992 470.08C334.043 468.373 330.032 465.813 326.96 462.4C326.021 461.376 325.637 460.224 325.808 458.944C325.979 457.664 326.619 456.555 327.728 455.616C328.923 454.763 330.16 454.421 331.44 454.592C332.72 454.763 333.787 455.317 334.64 456.256C336.688 458.645 339.376 460.48 342.704 461.76C346.117 463.04 349.872 463.68 353.968 463.68C360.283 463.68 364.848 462.613 367.664 460.48C370.48 458.261 371.931 455.616 372.016 452.544C372.016 449.472 370.565 446.955 367.664 444.992C364.763 442.944 359.984 441.365 353.328 440.256C344.709 438.891 338.395 436.501 334.384 433.088C330.373 429.675 328.368 425.621 328.368 420.928C328.368 416.576 329.52 412.949 331.824 410.048C334.128 407.147 337.2 404.971 341.04 403.52C344.88 402.069 349.104 401.344 353.712 401.344C359.429 401.344 364.336 402.325 368.432 404.288C372.613 406.251 375.984 408.896 378.544 412.224C379.397 413.333 379.739 414.485 379.568 415.68C379.397 416.875 378.715 417.856 377.52 418.624C376.496 419.221 375.301 419.435 373.936 419.264C372.656 419.008 371.547 418.368 370.608 417.344C368.475 414.869 366 413.077 363.184 411.968C360.368 410.773 357.125 410.176 353.456 410.176C348.763 410.176 345.008 411.157 342.192 413.12C339.376 414.997 337.968 417.387 337.968 420.288C337.968 422.251 338.48 423.957 339.504 425.408C340.613 426.859 342.448 428.139 345.008 429.248C347.653 430.357 351.323 431.296 356.016 432.064C362.416 433.088 367.451 434.624 371.12 436.672C374.875 438.635 377.52 440.981 379.056 443.712C380.677 446.357 381.488 449.259 381.488 452.416C381.488 456.427 380.293 459.968 377.904 463.04C375.6 466.027 372.357 468.373 368.176 470.08C364.08 471.787 359.344 472.64 353.968 472.64ZM429.368 472.64C422.797 472.64 416.909 471.104 411.704 468.032C406.499 464.875 402.36 460.608 399.288 455.232C396.301 449.856 394.808 443.797 394.808 437.056C394.808 430.229 396.344 424.128 399.416 418.752C402.573 413.376 406.84 409.152 412.216 406.08C417.592 402.923 423.651 401.344 430.392 401.344C437.133 401.344 443.149 402.923 448.44 406.08C453.816 409.152 458.04 413.376 461.112 418.752C464.269 424.128 465.891 430.229 465.976 437.056L462.008 440.128C462.008 446.272 460.557 451.819 457.656 456.768C454.84 461.632 450.957 465.515 446.008 468.416C441.144 471.232 435.597 472.64 429.368 472.64ZM430.392 463.68C435.341 463.68 439.736 462.528 443.576 460.224C447.501 457.92 450.573 454.763 452.792 450.752C455.096 446.656 456.248 442.091 456.248 437.056C456.248 431.936 455.096 427.371 452.792 423.36C450.573 419.349 447.501 416.192 443.576 413.888C439.736 411.499 435.341 410.304 430.392 410.304C425.528 410.304 421.133 411.499 417.208 413.888C413.283 416.192 410.168 419.349 407.864 423.36C405.56 427.371 404.408 431.936 404.408 437.056C404.408 442.091 405.56 446.656 407.864 450.752C410.168 454.763 413.283 457.92 417.208 460.224C421.133 462.528 425.528 463.68 430.392 463.68ZM460.984 472C459.533 472 458.339 471.573 457.4 470.72C456.461 469.781 455.992 468.587 455.992 467.136V445.248L458.424 435.136L465.976 437.056V467.136C465.976 468.587 465.507 469.781 464.568 470.72C463.629 471.573 462.435 472 460.984 472ZM515.993 472.64C509.422 472.64 503.534 471.104 498.329 468.032C493.124 464.875 488.985 460.608 485.913 455.232C482.926 449.856 481.433 443.797 481.433 437.056C481.433 430.229 482.969 424.128 486.041 418.752C489.198 413.376 493.465 409.152 498.841 406.08C504.217 402.923 510.276 401.344 517.017 401.344C523.758 401.344 529.774 402.923 535.065 406.08C540.441 409.152 544.665 413.376 547.737 418.752C550.894 424.128 552.516 430.229 552.601 437.056L548.633 440.128C548.633 446.272 547.182 451.819 544.281 456.768C541.465 461.632 537.582 465.515 532.633 468.416C527.769 471.232 522.222 472.64 515.993 472.64ZM517.017 463.68C521.966 463.68 526.361 462.528 530.201 460.224C534.126 457.92 537.198 454.763 539.417 450.752C541.721 446.656 542.873 442.091 542.873 437.056C542.873 431.936 541.721 427.371 539.417 423.36C537.198 419.349 534.126 416.192 530.201 413.888C526.361 411.499 521.966 410.304 517.017 410.304C512.153 410.304 507.758 411.499 503.833 413.888C499.908 416.192 496.793 419.349 494.489 423.36C492.185 427.371 491.033 431.936 491.033 437.056C491.033 442.091 492.185 446.656 494.489 450.752C496.793 454.763 499.908 457.92 503.833 460.224C507.758 462.528 512.153 463.68 517.017 463.68ZM547.609 472C546.158 472 544.964 471.573 544.025 470.72C543.086 469.781 542.617 468.587 542.617 467.136V445.248L545.049 435.136L552.601 437.056V467.136C552.601 468.587 552.132 469.781 551.193 470.72C550.254 471.573 549.06 472 547.609 472ZM580.474 472C579.194 472 578.085 471.573 577.146 470.72C576.207 469.781 575.738 468.544 575.738 467.008V402.112C575.738 396.139 576.762 390.891 578.81 386.368C580.858 381.845 583.887 378.347 587.898 375.872C591.909 373.312 596.815 372.032 602.618 372.032C604.069 372.032 605.263 372.459 606.202 373.312C607.141 374.165 607.61 375.232 607.61 376.512C607.61 377.792 607.141 378.859 606.202 379.712C605.263 380.565 604.069 380.992 602.618 380.992C598.778 380.992 595.578 381.888 593.018 383.68C590.543 385.387 588.666 387.819 587.386 390.976C586.191 394.048 585.594 397.589 585.594 401.6V467.008C585.594 468.544 585.125 469.781 584.186 470.72C583.333 471.573 582.095 472 580.474 472ZM567.546 413.12C566.181 413.12 565.071 412.736 564.218 411.968C563.45 411.115 563.066 410.091 563.066 408.896C563.066 407.616 563.45 406.592 564.218 405.824C565.071 404.971 566.181 404.544 567.546 404.544H600.954C602.319 404.544 603.386 404.971 604.154 405.824C605.007 406.592 605.434 407.616 605.434 408.896C605.434 410.091 605.007 411.115 604.154 411.968C603.386 412.736 602.319 413.12 600.954 413.12H567.546Z"></path>
</mask>
<path d="M353.968 472.64C348.933 472.64 343.941 471.787 338.992 470.08C334.043 468.373 330.032 465.813 326.96 462.4C326.021 461.376 325.637 460.224 325.808 458.944C325.979 457.664 326.619 456.555 327.728 455.616C328.923 454.763 330.16 454.421 331.44 454.592C332.72 454.763 333.787 455.317 334.64 456.256C336.688 458.645 339.376 460.48 342.704 461.76C346.117 463.04 349.872 463.68 353.968 463.68C360.283 463.68 364.848 462.613 367.664 460.48C370.48 458.261 371.931 455.616 372.016 452.544C372.016 449.472 370.565 446.955 367.664 444.992C364.763 442.944 359.984 441.365 353.328 440.256C344.709 438.891 338.395 436.501 334.384 433.088C330.373 429.675 328.368 425.621 328.368 420.928C328.368 416.576 329.52 412.949 331.824 410.048C334.128 407.147 337.2 404.971 341.04 403.52C344.88 402.069 349.104 401.344 353.712 401.344C359.429 401.344 364.336 402.325 368.432 404.288C372.613 406.251 375.984 408.896 378.544 412.224C379.397 413.333 379.739 414.485 379.568 415.68C379.397 416.875 378.715 417.856 377.52 418.624C376.496 419.221 375.301 419.435 373.936 419.264C372.656 419.008 371.547 418.368 370.608 417.344C368.475 414.869 366 413.077 363.184 411.968C360.368 410.773 357.125 410.176 353.456 410.176C348.763 410.176 345.008 411.157 342.192 413.12C339.376 414.997 337.968 417.387 337.968 420.288C337.968 422.251 338.48 423.957 339.504 425.408C340.613 426.859 342.448 428.139 345.008 429.248C347.653 430.357 351.323 431.296 356.016 432.064C362.416 433.088 367.451 434.624 371.12 436.672C374.875 438.635 377.52 440.981 379.056 443.712C380.677 446.357 381.488 449.259 381.488 452.416C381.488 456.427 380.293 459.968 377.904 463.04C375.6 466.027 372.357 468.373 368.176 470.08C364.08 471.787 359.344 472.64 353.968 472.64ZM429.368 472.64C422.797 472.64 416.909 471.104 411.704 468.032C406.499 464.875 402.36 460.608 399.288 455.232C396.301 449.856 394.808 443.797 394.808 437.056C394.808 430.229 396.344 424.128 399.416 418.752C402.573 413.376 406.84 409.152 412.216 406.08C417.592 402.923 423.651 401.344 430.392 401.344C437.133 401.344 443.149 402.923 448.44 406.08C453.816 409.152 458.04 413.376 461.112 418.752C464.269 424.128 465.891 430.229 465.976 437.056L462.008 440.128C462.008 446.272 460.557 451.819 457.656 456.768C454.84 461.632 450.957 465.515 446.008 468.416C441.144 471.232 435.597 472.64 429.368 472.64ZM430.392 463.68C435.341 463.68 439.736 462.528 443.576 460.224C447.501 457.92 450.573 454.763 452.792 450.752C455.096 446.656 456.248 442.091 456.248 437.056C456.248 431.936 455.096 427.371 452.792 423.36C450.573 419.349 447.501 416.192 443.576 413.888C439.736 411.499 435.341 410.304 430.392 410.304C425.528 410.304 421.133 411.499 417.208 413.888C413.283 416.192 410.168 419.349 407.864 423.36C405.56 427.371 404.408 431.936 404.408 437.056C404.408 442.091 405.56 446.656 407.864 450.752C410.168 454.763 413.283 457.92 417.208 460.224C421.133 462.528 425.528 463.68 430.392 463.68ZM460.984 472C459.533 472 458.339 471.573 457.4 470.72C456.461 469.781 455.992 468.587 455.992 467.136V445.248L458.424 435.136L465.976 437.056V467.136C465.976 468.587 465.507 469.781 464.568 470.72C463.629 471.573 462.435 472 460.984 472ZM515.993 472.64C509.422 472.64 503.534 471.104 498.329 468.032C493.124 464.875 488.985 460.608 485.913 455.232C482.926 449.856 481.433 443.797 481.433 437.056C481.433 430.229 482.969 424.128 486.041 418.752C489.198 413.376 493.465 409.152 498.841 406.08C504.217 402.923 510.276 401.344 517.017 401.344C523.758 401.344 529.774 402.923 535.065 406.08C540.441 409.152 544.665 413.376 547.737 418.752C550.894 424.128 552.516 430.229 552.601 437.056L548.633 440.128C548.633 446.272 547.182 451.819 544.281 456.768C541.465 461.632 537.582 465.515 532.633 468.416C527.769 471.232 522.222 472.64 515.993 472.64ZM517.017 463.68C521.966 463.68 526.361 462.528 530.201 460.224C534.126 457.92 537.198 454.763 539.417 450.752C541.721 446.656 542.873 442.091 542.873 437.056C542.873 431.936 541.721 427.371 539.417 423.36C537.198 419.349 534.126 416.192 530.201 413.888C526.361 411.499 521.966 410.304 517.017 410.304C512.153 410.304 507.758 411.499 503.833 413.888C499.908 416.192 496.793 419.349 494.489 423.36C492.185 427.371 491.033 431.936 491.033 437.056C491.033 442.091 492.185 446.656 494.489 450.752C496.793 454.763 499.908 457.92 503.833 460.224C507.758 462.528 512.153 463.68 517.017 463.68ZM547.609 472C546.158 472 544.964 471.573 544.025 470.72C543.086 469.781 542.617 468.587 542.617 467.136V445.248L545.049 435.136L552.601 437.056V467.136C552.601 468.587 552.132 469.781 551.193 470.72C550.254 471.573 549.06 472 547.609 472ZM580.474 472C579.194 472 578.085 471.573 577.146 470.72C576.207 469.781 575.738 468.544 575.738 467.008V402.112C575.738 396.139 576.762 390.891 578.81 386.368C580.858 381.845 583.887 378.347 587.898 375.872C591.909 373.312 596.815 372.032 602.618 372.032C604.069 372.032 605.263 372.459 606.202 373.312C607.141 374.165 607.61 375.232 607.61 376.512C607.61 377.792 607.141 378.859 606.202 379.712C605.263 380.565 604.069 380.992 602.618 380.992C598.778 380.992 595.578 381.888 593.018 383.68C590.543 385.387 588.666 387.819 587.386 390.976C586.191 394.048 585.594 397.589 585.594 401.6V467.008C585.594 468.544 585.125 469.781 584.186 470.72C583.333 471.573 582.095 472 580.474 472ZM567.546 413.12C566.181 413.12 565.071 412.736 564.218 411.968C563.45 411.115 563.066 410.091 563.066 408.896C563.066 407.616 563.45 406.592 564.218 405.824C565.071 404.971 566.181 404.544 567.546 404.544H600.954C602.319 404.544 603.386 404.971 604.154 405.824C605.007 406.592 605.434 407.616 605.434 408.896C605.434 410.091 605.007 411.115 604.154 411.968C603.386 412.736 602.319 413.12 600.954 413.12H567.546Z" fill="#08233C"></path>
<path d="M338.992 470.08L338.666 471.025V471.025L338.992 470.08ZM326.96 462.4L327.703 461.731L327.697 461.724L326.96 462.4ZM325.808 458.944L326.799 459.076V459.076L325.808 458.944ZM327.728 455.616L327.147 454.802L327.113 454.826L327.082 454.853L327.728 455.616ZM334.64 456.256L335.399 455.605L335.39 455.594L335.38 455.583L334.64 456.256ZM342.704 461.76L342.345 462.693L342.353 462.696L342.704 461.76ZM367.664 460.48L368.268 461.277L368.275 461.271L368.283 461.265L367.664 460.48ZM372.016 452.544L373.016 452.572L373.016 452.558V452.544H372.016ZM367.664 444.992L367.087 445.809L367.095 445.815L367.104 445.82L367.664 444.992ZM353.328 440.256L353.492 439.27L353.484 439.268L353.328 440.256ZM334.384 433.088L335.032 432.326V432.326L334.384 433.088ZM331.824 410.048L331.041 409.426V409.426L331.824 410.048ZM368.432 404.288L368 405.19L368.007 405.193L368.432 404.288ZM378.544 412.224L377.751 412.834V412.834L378.544 412.224ZM379.568 415.68L380.558 415.821V415.821L379.568 415.68ZM377.52 418.624L378.024 419.488L378.043 419.477L378.061 419.465L377.52 418.624ZM373.936 419.264L373.74 420.245L373.776 420.252L373.812 420.256L373.936 419.264ZM370.608 417.344L369.851 417.997L369.861 418.008L369.871 418.02L370.608 417.344ZM363.184 411.968L362.793 412.889L362.805 412.894L362.817 412.898L363.184 411.968ZM342.192 413.12L342.747 413.952L342.755 413.946L342.764 413.94L342.192 413.12ZM339.504 425.408L338.687 425.985L338.698 426L338.71 426.015L339.504 425.408ZM345.008 429.248L344.61 430.166L344.621 430.17L345.008 429.248ZM356.016 432.064L355.855 433.051L355.858 433.051L356.016 432.064ZM371.12 436.672L370.633 437.545L370.645 437.552L370.657 437.558L371.12 436.672ZM379.056 443.712L378.184 444.202L378.194 444.219L378.203 444.235L379.056 443.712ZM377.904 463.04L377.115 462.426L377.112 462.429L377.904 463.04ZM368.176 470.08L367.798 469.154L367.791 469.157L368.176 470.08ZM353.968 472.64V471.64C349.049 471.64 344.167 470.807 339.318 469.135L338.992 470.08L338.666 471.025C343.716 472.767 348.818 473.64 353.968 473.64V472.64ZM338.992 470.08L339.318 469.135C334.506 467.475 330.647 465.002 327.703 461.731L326.96 462.4L326.217 463.069C329.417 466.625 333.579 469.271 338.666 471.025L338.992 470.08ZM326.96 462.4L327.697 461.724C326.941 460.9 326.671 460.038 326.799 459.076L325.808 458.944L324.817 458.812C324.604 460.41 325.101 461.852 326.223 463.076L326.96 462.4ZM325.808 458.944L326.799 459.076C326.933 458.073 327.429 457.179 328.374 456.379L327.728 455.616L327.082 454.853C325.809 455.93 325.024 457.255 324.817 458.812L325.808 458.944ZM327.728 455.616L328.309 456.43C329.328 455.702 330.314 455.451 331.308 455.583L331.44 454.592L331.572 453.601C330.006 453.392 328.518 453.823 327.147 454.802L327.728 455.616ZM331.44 454.592L331.308 455.583C332.359 455.723 333.208 456.168 333.9 456.929L334.64 456.256L335.38 455.583C334.365 454.467 333.081 453.802 331.572 453.601L331.44 454.592ZM334.64 456.256L333.881 456.907C336.05 459.438 338.883 461.362 342.345 462.693L342.704 461.76L343.063 460.827C339.869 459.598 337.326 457.853 335.399 455.605L334.64 456.256ZM342.704 461.76L342.353 462.696C345.891 464.023 349.767 464.68 353.968 464.68V463.68V462.68C349.977 462.68 346.343 462.057 343.055 460.824L342.704 461.76ZM353.968 463.68V464.68C360.349 464.68 365.187 463.611 368.268 461.277L367.664 460.48L367.06 459.683C364.509 461.616 360.216 462.68 353.968 462.68V463.68ZM367.664 460.48L368.283 461.265C371.289 458.897 372.921 455.991 373.016 452.572L372.016 452.544L371.016 452.516C370.941 455.241 369.671 457.625 367.045 459.695L367.664 460.48ZM372.016 452.544H373.016C373.016 449.089 371.356 446.282 368.224 444.164L367.664 444.992L367.104 445.82C369.775 447.627 371.016 449.855 371.016 452.544H372.016ZM367.664 444.992L368.241 444.175C365.15 441.993 360.187 440.385 353.492 439.27L353.328 440.256L353.164 441.242C359.781 442.345 364.376 443.895 367.087 445.809L367.664 444.992ZM353.328 440.256L353.484 439.268C344.941 437.915 338.839 435.566 335.032 432.326L334.384 433.088L333.736 433.85C337.951 437.437 344.478 439.866 353.172 441.244L353.328 440.256ZM334.384 433.088L335.032 432.326C331.214 429.077 329.368 425.29 329.368 420.928H328.368H327.368C327.368 425.952 329.533 430.272 333.736 433.85L334.384 433.088ZM328.368 420.928H329.368C329.368 416.761 330.467 413.365 332.607 410.67L331.824 410.048L331.041 409.426C328.573 412.534 327.368 416.391 327.368 420.928H328.368ZM331.824 410.048L332.607 410.67C334.787 407.925 337.704 405.849 341.393 404.455L341.04 403.52L340.687 402.585C336.696 404.092 333.469 406.368 331.041 409.426L331.824 410.048ZM341.04 403.52L341.393 404.455C345.107 403.052 349.21 402.344 353.712 402.344V401.344V400.344C348.998 400.344 344.653 401.086 340.687 402.585L341.04 403.52ZM353.712 401.344V402.344C359.317 402.344 364.069 403.306 368 405.19L368.432 404.288L368.864 403.386C364.603 401.344 359.541 400.344 353.712 400.344V401.344ZM368.432 404.288L368.007 405.193C372.059 407.095 375.298 409.644 377.751 412.834L378.544 412.224L379.337 411.614C376.67 408.148 373.168 405.406 368.857 403.383L368.432 404.288ZM378.544 412.224L377.751 412.834C378.469 413.767 378.704 414.654 378.578 415.539L379.568 415.68L380.558 415.821C380.773 414.317 380.326 412.9 379.337 411.614L378.544 412.224ZM379.568 415.68L378.578 415.539C378.456 416.394 377.977 417.141 376.979 417.783L377.52 418.624L378.061 419.465C379.452 418.571 380.339 417.355 380.558 415.821L379.568 415.68ZM377.52 418.624L377.016 417.76C376.211 418.23 375.244 418.42 374.06 418.272L373.936 419.264L373.812 420.256C375.359 420.45 376.781 420.213 378.024 419.488L377.52 418.624ZM373.936 419.264L374.132 418.283C373.074 418.072 372.15 417.546 371.345 416.668L370.608 417.344L369.871 418.02C370.943 419.19 372.238 419.944 373.74 420.245L373.936 419.264ZM370.608 417.344L371.365 416.691C369.135 414.104 366.529 412.211 363.551 411.038L363.184 411.968L362.817 412.898C365.471 413.944 367.815 415.635 369.851 417.997L370.608 417.344ZM363.184 411.968L363.575 411.047C360.613 409.791 357.233 409.176 353.456 409.176V410.176V411.176C357.017 411.176 360.123 411.756 362.793 412.889L363.184 411.968ZM353.456 410.176V409.176C348.632 409.176 344.655 410.184 341.62 412.3L342.192 413.12L342.764 413.94C345.361 412.131 348.894 411.176 353.456 411.176V410.176ZM342.192 413.12L341.637 412.288C338.597 414.315 336.968 416.993 336.968 420.288H337.968H338.968C338.968 417.781 340.155 415.68 342.747 413.952L342.192 413.12ZM337.968 420.288H336.968C336.968 422.434 337.531 424.348 338.687 425.985L339.504 425.408L340.321 424.831C339.429 423.567 338.968 422.067 338.968 420.288H337.968ZM339.504 425.408L338.71 426.015C339.963 427.655 341.97 429.021 344.61 430.166L345.008 429.248L345.406 428.33C342.926 427.256 341.263 426.063 340.298 424.801L339.504 425.408ZM345.008 429.248L344.621 430.17C347.371 431.323 351.127 432.277 355.855 433.051L356.016 432.064L356.177 431.077C351.518 430.315 347.936 429.392 345.395 428.326L345.008 429.248ZM356.016 432.064L355.858 433.051C362.198 434.066 367.105 435.577 370.633 437.545L371.12 436.672L371.607 435.799C367.796 433.671 362.634 432.11 356.174 431.077L356.016 432.064ZM371.12 436.672L370.657 437.558C374.299 439.462 376.771 441.69 378.184 444.202L379.056 443.712L379.928 443.222C378.269 440.273 375.451 437.807 371.583 435.786L371.12 436.672ZM379.056 443.712L378.203 444.235C379.727 446.72 380.488 449.44 380.488 452.416H381.488H382.488C382.488 449.078 381.628 445.995 379.909 443.189L379.056 443.712ZM381.488 452.416H380.488C380.488 456.212 379.363 459.535 377.115 462.426L377.904 463.04L378.693 463.654C381.224 460.401 382.488 456.642 382.488 452.416H381.488ZM377.904 463.04L377.112 462.429C374.935 465.251 371.848 467.501 367.798 469.154L368.176 470.08L368.554 471.006C372.866 469.246 376.265 466.802 378.696 463.651L377.904 463.04ZM368.176 470.08L367.791 469.157C363.84 470.803 359.239 471.64 353.968 471.64V472.64V473.64C359.449 473.64 364.32 472.77 368.561 471.003L368.176 470.08ZM411.704 468.032L411.185 468.887L411.196 468.893L411.704 468.032ZM399.288 455.232L398.414 455.718L398.42 455.728L399.288 455.232ZM399.416 418.752L398.554 418.246L398.548 418.256L399.416 418.752ZM412.216 406.08L412.712 406.948L412.722 406.942L412.216 406.08ZM448.44 406.08L447.928 406.939L447.936 406.944L447.944 406.948L448.44 406.08ZM461.112 418.752L460.244 419.248L460.25 419.258L461.112 418.752ZM465.976 437.056L466.588 437.847L466.982 437.542L466.976 437.044L465.976 437.056ZM462.008 440.128L461.396 439.337L461.008 439.638V440.128H462.008ZM457.656 456.768L456.793 456.262L456.791 456.267L457.656 456.768ZM446.008 468.416L446.509 469.281L446.514 469.279L446.008 468.416ZM443.576 460.224L443.07 459.362L443.062 459.367L443.576 460.224ZM452.792 450.752L451.92 450.262L451.917 450.268L452.792 450.752ZM452.792 423.36L451.917 423.844L451.921 423.851L451.925 423.858L452.792 423.36ZM443.576 413.888L443.048 414.737L443.059 414.744L443.07 414.75L443.576 413.888ZM417.208 413.888L417.714 414.75L417.721 414.746L417.728 414.742L417.208 413.888ZM407.864 423.36L406.997 422.862V422.862L407.864 423.36ZM407.864 450.752L406.992 451.242L406.997 451.25L407.864 450.752ZM417.208 460.224L417.714 459.362V459.362L417.208 460.224ZM457.4 470.72L456.693 471.427L456.71 471.444L456.727 471.46L457.4 470.72ZM455.992 445.248L455.02 445.014L454.992 445.129V445.248H455.992ZM458.424 435.136L458.67 434.167L457.689 433.917L457.452 434.902L458.424 435.136ZM465.976 437.056H466.976V436.278L466.222 436.087L465.976 437.056ZM464.568 470.72L465.241 471.46L465.258 471.444L465.275 471.427L464.568 470.72ZM429.368 472.64V471.64C422.96 471.64 417.25 470.144 412.212 467.171L411.704 468.032L411.196 468.893C416.568 472.064 422.635 473.64 429.368 473.64V472.64ZM411.704 468.032L412.223 467.177C407.165 464.109 403.146 459.967 400.156 454.736L399.288 455.232L398.42 455.728C401.574 461.249 405.832 465.64 411.185 468.887L411.704 468.032ZM399.288 455.232L400.162 454.746C397.266 449.533 395.808 443.644 395.808 437.056H394.808H393.808C393.808 443.951 395.337 450.179 398.414 455.718L399.288 455.232ZM394.808 437.056H395.808C395.808 430.385 397.307 424.458 400.284 419.248L399.416 418.752L398.548 418.256C395.381 423.798 393.808 430.074 393.808 437.056H394.808ZM399.416 418.752L400.278 419.258C403.348 414.032 407.489 409.933 412.712 406.948L412.216 406.08L411.72 405.212C406.191 408.371 401.799 412.72 398.554 418.246L399.416 418.752ZM412.216 406.08L412.722 406.942C417.932 403.882 423.814 402.344 430.392 402.344V401.344V400.344C423.488 400.344 417.252 401.963 411.71 405.218L412.216 406.08ZM430.392 401.344V402.344C436.97 402.344 442.806 403.882 447.928 406.939L448.44 406.08L448.952 405.221C443.492 401.963 437.296 400.344 430.392 400.344V401.344ZM448.44 406.08L447.944 406.948C453.165 409.932 457.26 414.027 460.244 419.248L461.112 418.752L461.98 418.256C458.82 412.725 454.467 408.372 448.936 405.212L448.44 406.08ZM461.112 418.752L460.25 419.258C463.311 424.471 464.893 430.399 464.976 437.068L465.976 437.056L466.976 437.044C466.889 430.06 465.228 423.785 461.974 418.246L461.112 418.752ZM465.976 437.056L465.364 436.265L461.396 439.337L462.008 440.128L462.62 440.919L466.588 437.847L465.976 437.056ZM462.008 440.128H461.008C461.008 446.107 459.598 451.477 456.793 456.262L457.656 456.768L458.519 457.274C461.516 452.16 463.008 446.437 463.008 440.128H462.008ZM457.656 456.768L456.791 456.267C454.063 460.978 450.306 464.738 445.502 467.553L446.008 468.416L446.514 469.279C451.609 466.292 455.617 462.286 458.521 457.269L457.656 456.768ZM446.008 468.416L445.507 467.551C440.811 470.269 435.441 471.64 429.368 471.64V472.64V473.64C435.754 473.64 441.477 472.195 446.509 469.281L446.008 468.416ZM430.392 463.68V464.68C435.503 464.68 440.079 463.488 444.09 461.081L443.576 460.224L443.062 459.367C439.393 461.568 435.18 462.68 430.392 462.68V463.68ZM443.576 460.224L444.082 461.086C448.163 458.691 451.362 455.402 453.667 451.236L452.792 450.752L451.917 450.268C449.784 454.123 446.839 457.149 443.07 459.362L443.576 460.224ZM452.792 450.752L453.664 451.242C456.058 446.986 457.248 442.25 457.248 437.056H456.248H455.248C455.248 441.932 454.134 446.326 451.92 450.262L452.792 450.752ZM456.248 437.056H457.248C457.248 431.78 456.059 427.04 453.659 422.862L452.792 423.36L451.925 423.858C454.133 427.701 455.248 432.092 455.248 437.056H456.248ZM452.792 423.36L453.667 422.876C451.362 418.71 448.163 415.421 444.082 413.026L443.576 413.888L443.07 414.75C446.839 416.963 449.784 419.989 451.917 423.844L452.792 423.36ZM443.576 413.888L444.104 413.039C440.091 410.542 435.51 409.304 430.392 409.304V410.304V411.304C435.173 411.304 439.381 412.456 443.048 414.737L443.576 413.888ZM430.392 410.304V409.304C425.356 409.304 420.779 410.543 416.688 413.034L417.208 413.888L417.728 414.742C421.487 412.454 425.7 411.304 430.392 411.304V410.304ZM417.208 413.888L416.702 413.026C412.624 415.419 409.386 418.703 406.997 422.862L407.864 423.36L408.731 423.858C410.95 419.996 413.941 416.965 417.714 414.75L417.208 413.888ZM407.864 423.36L406.997 422.862C404.597 427.04 403.408 431.78 403.408 437.056H404.408H405.408C405.408 432.092 406.523 427.701 408.731 423.858L407.864 423.36ZM404.408 437.056H403.408C403.408 442.25 404.598 446.986 406.992 451.242L407.864 450.752L408.736 450.262C406.522 446.326 405.408 441.932 405.408 437.056H404.408ZM407.864 450.752L406.997 451.25C409.386 455.409 412.624 458.693 416.702 461.086L417.208 460.224L417.714 459.362C413.941 457.147 410.95 454.116 408.731 450.254L407.864 450.752ZM417.208 460.224L416.702 461.086C420.791 463.487 425.363 464.68 430.392 464.68V463.68V462.68C425.693 462.68 421.475 461.569 417.714 459.362L417.208 460.224ZM460.984 472V471C459.744 471 458.801 470.642 458.073 469.98L457.4 470.72L456.727 471.46C457.877 472.505 459.323 473 460.984 473V472ZM457.4 470.72L458.107 470.013C457.374 469.28 456.992 468.349 456.992 467.136H455.992H454.992C454.992 468.825 455.548 470.283 456.693 471.427L457.4 470.72ZM455.992 467.136H456.992V445.248H455.992H454.992V467.136H455.992ZM455.992 445.248L456.964 445.482L459.396 435.37L458.424 435.136L457.452 434.902L455.02 445.014L455.992 445.248ZM458.424 435.136L458.178 436.105L465.73 438.025L465.976 437.056L466.222 436.087L458.67 434.167L458.424 435.136ZM465.976 437.056H464.976V467.136H465.976H466.976V437.056H465.976ZM465.976 467.136H464.976C464.976 468.349 464.594 469.28 463.861 470.013L464.568 470.72L465.275 471.427C466.42 470.283 466.976 468.825 466.976 467.136H465.976ZM464.568 470.72L463.895 469.98C463.167 470.642 462.224 471 460.984 471V472V473C462.645 473 464.091 472.505 465.241 471.46L464.568 470.72ZM498.329 468.032L497.81 468.887L497.821 468.893L498.329 468.032ZM485.913 455.232L485.039 455.718L485.045 455.728L485.913 455.232ZM486.041 418.752L485.179 418.246L485.173 418.256L486.041 418.752ZM498.841 406.08L499.337 406.948L499.347 406.942L498.841 406.08ZM535.065 406.08L534.553 406.939L534.561 406.944L534.569 406.948L535.065 406.08ZM547.737 418.752L546.869 419.248L546.875 419.258L547.737 418.752ZM552.601 437.056L553.213 437.847L553.607 437.542L553.601 437.044L552.601 437.056ZM548.633 440.128L548.021 439.337L547.633 439.638V440.128H548.633ZM544.281 456.768L543.418 456.262L543.416 456.267L544.281 456.768ZM532.633 468.416L533.134 469.281L533.139 469.279L532.633 468.416ZM530.201 460.224L529.695 459.362L529.687 459.367L530.201 460.224ZM539.417 450.752L538.545 450.262L538.542 450.268L539.417 450.752ZM539.417 423.36L538.542 423.844L538.546 423.851L538.55 423.858L539.417 423.36ZM530.201 413.888L529.673 414.737L529.684 414.744L529.695 414.75L530.201 413.888ZM503.833 413.888L504.339 414.75L504.346 414.746L504.353 414.742L503.833 413.888ZM494.489 423.36L493.622 422.862V422.862L494.489 423.36ZM494.489 450.752L493.617 451.242L493.622 451.25L494.489 450.752ZM503.833 460.224L504.339 459.362V459.362L503.833 460.224ZM544.025 470.72L543.318 471.427L543.335 471.444L543.352 471.46L544.025 470.72ZM542.617 445.248L541.645 445.014L541.617 445.129V445.248H542.617ZM545.049 435.136L545.295 434.167L544.314 433.917L544.077 434.902L545.049 435.136ZM552.601 437.056H553.601V436.278L552.847 436.087L552.601 437.056ZM551.193 470.72L551.866 471.46L551.883 471.444L551.9 471.427L551.193 470.72ZM515.993 472.64V471.64C509.585 471.64 503.875 470.144 498.837 467.171L498.329 468.032L497.821 468.893C503.193 472.064 509.26 473.64 515.993 473.64V472.64ZM498.329 468.032L498.848 467.177C493.79 464.109 489.771 459.967 486.781 454.736L485.913 455.232L485.045 455.728C488.199 461.249 492.457 465.64 497.81 468.887L498.329 468.032ZM485.913 455.232L486.787 454.746C483.891 449.533 482.433 443.644 482.433 437.056H481.433H480.433C480.433 443.951 481.962 450.179 485.039 455.718L485.913 455.232ZM481.433 437.056H482.433C482.433 430.385 483.932 424.458 486.909 419.248L486.041 418.752L485.173 418.256C482.006 423.798 480.433 430.074 480.433 437.056H481.433ZM486.041 418.752L486.903 419.258C489.973 414.032 494.114 409.933 499.337 406.948L498.841 406.08L498.345 405.212C492.816 408.371 488.424 412.72 485.179 418.246L486.041 418.752ZM498.841 406.08L499.347 406.942C504.557 403.882 510.439 402.344 517.017 402.344V401.344V400.344C510.113 400.344 503.877 401.963 498.335 405.218L498.841 406.08ZM517.017 401.344V402.344C523.595 402.344 529.431 403.882 534.553 406.939L535.065 406.08L535.577 405.221C530.117 401.963 523.921 400.344 517.017 400.344V401.344ZM535.065 406.08L534.569 406.948C539.79 409.932 543.885 414.027 546.869 419.248L547.737 418.752L548.605 418.256C545.445 412.725 541.092 408.372 535.561 405.212L535.065 406.08ZM547.737 418.752L546.875 419.258C549.936 424.471 551.518 430.399 551.601 437.068L552.601 437.056L553.601 437.044C553.514 430.06 551.853 423.785 548.599 418.246L547.737 418.752ZM552.601 437.056L551.989 436.265L548.021 439.337L548.633 440.128L549.245 440.919L553.213 437.847L552.601 437.056ZM548.633 440.128H547.633C547.633 446.107 546.223 451.477 543.418 456.262L544.281 456.768L545.144 457.274C548.141 452.16 549.633 446.437 549.633 440.128H548.633ZM544.281 456.768L543.416 456.267C540.688 460.978 536.931 464.738 532.127 467.553L532.633 468.416L533.139 469.279C538.234 466.292 542.242 462.286 545.146 457.269L544.281 456.768ZM532.633 468.416L532.132 467.551C527.436 470.269 522.066 471.64 515.993 471.64V472.64V473.64C522.379 473.64 528.102 472.195 533.134 469.281L532.633 468.416ZM517.017 463.68V464.68C522.128 464.68 526.704 463.488 530.715 461.081L530.201 460.224L529.687 459.367C526.018 461.568 521.805 462.68 517.017 462.68V463.68ZM530.201 460.224L530.707 461.086C534.788 458.691 537.987 455.402 540.292 451.236L539.417 450.752L538.542 450.268C536.409 454.123 533.464 457.149 529.695 459.362L530.201 460.224ZM539.417 450.752L540.289 451.242C542.683 446.986 543.873 442.25 543.873 437.056H542.873H541.873C541.873 441.932 540.759 446.326 538.545 450.262L539.417 450.752ZM542.873 437.056H543.873C543.873 431.78 542.684 427.04 540.284 422.862L539.417 423.36L538.55 423.858C540.758 427.701 541.873 432.092 541.873 437.056H542.873ZM539.417 423.36L540.292 422.876C537.987 418.71 534.788 415.421 530.707 413.026L530.201 413.888L529.695 414.75C533.464 416.963 536.409 419.989 538.542 423.844L539.417 423.36ZM530.201 413.888L530.729 413.039C526.716 410.542 522.135 409.304 517.017 409.304V410.304V411.304C521.798 411.304 526.006 412.456 529.673 414.737L530.201 413.888ZM517.017 410.304V409.304C511.981 409.304 507.404 410.543 503.313 413.034L503.833 413.888L504.353 414.742C508.112 412.454 512.325 411.304 517.017 411.304V410.304ZM503.833 413.888L503.327 413.026C499.249 415.419 496.011 418.703 493.622 422.862L494.489 423.36L495.356 423.858C497.575 419.996 500.566 416.965 504.339 414.75L503.833 413.888ZM494.489 423.36L493.622 422.862C491.222 427.04 490.033 431.78 490.033 437.056H491.033H492.033C492.033 432.092 493.148 427.701 495.356 423.858L494.489 423.36ZM491.033 437.056H490.033C490.033 442.25 491.223 446.986 493.617 451.242L494.489 450.752L495.361 450.262C493.147 446.326 492.033 441.932 492.033 437.056H491.033ZM494.489 450.752L493.622 451.25C496.011 455.409 499.249 458.693 503.327 461.086L503.833 460.224L504.339 459.362C500.566 457.147 497.575 454.116 495.356 450.254L494.489 450.752ZM503.833 460.224L503.327 461.086C507.416 463.487 511.988 464.68 517.017 464.68V463.68V462.68C512.318 462.68 508.1 461.569 504.339 459.362L503.833 460.224ZM547.609 472V471C546.369 471 545.426 470.642 544.698 469.98L544.025 470.72L543.352 471.46C544.502 472.505 545.948 473 547.609 473V472ZM544.025 470.72L544.732 470.013C543.999 469.28 543.617 468.349 543.617 467.136H542.617H541.617C541.617 468.825 542.173 470.283 543.318 471.427L544.025 470.72ZM542.617 467.136H543.617V445.248H542.617H541.617V467.136H542.617ZM542.617 445.248L543.589 445.482L546.021 435.37L545.049 435.136L544.077 434.902L541.645 445.014L542.617 445.248ZM545.049 435.136L544.803 436.105L552.355 438.025L552.601 437.056L552.847 436.087L545.295 434.167L545.049 435.136ZM552.601 437.056H551.601V467.136H552.601H553.601V437.056H552.601ZM552.601 467.136H551.601C551.601 468.349 551.219 469.28 550.486 470.013L551.193 470.72L551.9 471.427C553.045 470.283 553.601 468.825 553.601 467.136H552.601ZM551.193 470.72L550.52 469.98C549.792 470.642 548.849 471 547.609 471V472V473C549.27 473 550.716 472.505 551.866 471.46L551.193 470.72ZM577.146 470.72L576.439 471.427L576.456 471.444L576.473 471.46L577.146 470.72ZM578.81 386.368L579.721 386.781V386.781L578.81 386.368ZM587.898 375.872L588.423 376.723L588.43 376.719L588.436 376.715L587.898 375.872ZM606.202 373.312L606.875 372.572V372.572L606.202 373.312ZM606.202 379.712L606.875 380.452V380.452L606.202 379.712ZM593.018 383.68L593.586 384.503L593.591 384.499L593.018 383.68ZM587.386 390.976L586.459 390.6L586.457 390.607L586.454 390.614L587.386 390.976ZM584.186 470.72L583.479 470.013V470.013L584.186 470.72ZM564.218 411.968L563.475 412.637L563.51 412.676L563.549 412.711L564.218 411.968ZM564.218 405.824L563.511 405.117V405.117L564.218 405.824ZM604.154 405.824L603.411 406.493L603.446 406.532L603.485 406.567L604.154 405.824ZM604.154 411.968L604.861 412.675V412.675L604.154 411.968ZM580.474 472V471C579.44 471 578.571 470.664 577.819 469.98L577.146 470.72L576.473 471.46C577.598 472.482 578.948 473 580.474 473V472ZM577.146 470.72L577.853 470.013C577.132 469.291 576.738 468.324 576.738 467.008H575.738H574.738C574.738 468.764 575.283 470.271 576.439 471.427L577.146 470.72ZM575.738 467.008H576.738V402.112H575.738H574.738V467.008H575.738ZM575.738 402.112H576.738C576.738 396.253 577.742 391.15 579.721 386.781L578.81 386.368L577.899 385.955C575.782 390.631 574.738 396.025 574.738 402.112H575.738ZM578.81 386.368L579.721 386.781C581.691 382.429 584.591 379.087 588.423 376.723L587.898 375.872L587.373 375.021C583.184 377.606 580.025 381.262 577.899 385.955L578.81 386.368ZM587.898 375.872L588.436 376.715C592.254 374.278 596.964 373.032 602.618 373.032V372.032V371.032C596.667 371.032 591.563 372.346 587.36 375.029L587.898 375.872ZM602.618 372.032V373.032C603.858 373.032 604.801 373.39 605.529 374.052L606.202 373.312L606.875 372.572C605.725 371.527 604.279 371.032 602.618 371.032V372.032ZM606.202 373.312L605.529 374.052C606.257 374.714 606.61 375.511 606.61 376.512H607.61H608.61C608.61 374.953 608.024 373.617 606.875 372.572L606.202 373.312ZM607.61 376.512H606.61C606.61 377.513 606.257 378.31 605.529 378.972L606.202 379.712L606.875 380.452C608.024 379.407 608.61 378.071 608.61 376.512H607.61ZM606.202 379.712L605.529 378.972C604.801 379.634 603.858 379.992 602.618 379.992V380.992V381.992C604.279 381.992 605.725 381.497 606.875 380.452L606.202 379.712ZM602.618 380.992V379.992C598.62 379.992 595.208 380.926 592.445 382.861L593.018 383.68L593.591 384.499C595.948 382.849 598.936 381.992 602.618 381.992V380.992ZM593.018 383.68L592.45 382.857C589.794 384.689 587.803 387.287 586.459 390.6L587.386 390.976L588.313 391.352C589.529 388.351 591.293 386.085 593.586 384.503L593.018 383.68ZM587.386 390.976L586.454 390.614C585.206 393.823 584.594 397.491 584.594 401.6H585.594H586.594C586.594 397.687 587.177 394.273 588.318 391.338L587.386 390.976ZM585.594 401.6H584.594V467.008H585.594H586.594V401.6H585.594ZM585.594 467.008H584.594C584.594 468.324 584.2 469.291 583.479 470.013L584.186 470.72L584.893 471.427C586.049 470.271 586.594 468.764 586.594 467.008H585.594ZM584.186 470.72L583.479 470.013C582.87 470.621 581.924 471 580.474 471V472V473C582.267 473 583.795 472.525 584.893 471.427L584.186 470.72ZM567.546 413.12V412.12C566.378 412.12 565.523 411.797 564.887 411.225L564.218 411.968L563.549 412.711C564.62 413.675 565.983 414.12 567.546 414.12V413.12ZM564.218 411.968L564.961 411.299C564.366 410.637 564.066 409.855 564.066 408.896H563.066H562.066C562.066 410.327 562.534 411.592 563.475 412.637L564.218 411.968ZM563.066 408.896H564.066C564.066 407.83 564.378 407.078 564.925 406.531L564.218 405.824L563.511 405.117C562.522 406.106 562.066 407.402 562.066 408.896H563.066ZM564.218 405.824L564.925 406.531C565.566 405.891 566.408 405.544 567.546 405.544V404.544V403.544C565.953 403.544 564.577 404.051 563.511 405.117L564.218 405.824ZM567.546 404.544V405.544H600.954V404.544V403.544H567.546V404.544ZM600.954 404.544V405.544C602.094 405.544 602.868 405.89 603.411 406.493L604.154 405.824L604.897 405.155C603.904 404.051 602.544 403.544 600.954 403.544V404.544ZM604.154 405.824L603.485 406.567C604.102 407.123 604.434 407.863 604.434 408.896H605.434H606.434C606.434 407.369 605.913 406.061 604.823 405.081L604.154 405.824ZM605.434 408.896H604.434C604.434 409.822 604.115 410.593 603.447 411.261L604.154 411.968L604.861 412.675C605.9 411.636 606.434 410.359 606.434 408.896H605.434ZM604.154 411.968L603.447 411.261C602.912 411.796 602.126 412.12 600.954 412.12V413.12V414.12C602.513 414.12 603.86 413.676 604.861 412.675L604.154 411.968ZM600.954 413.12V412.12H567.546V413.12V414.12H600.954V413.12Z" fill="#08233C" mask="url(#path-7-outside-1_29_13)"></path>
<defs>
<filter id="filter0_i_29_13" x="318.187" y="155.828" width="234.81" height="87.9116" filterUnits="userSpaceOnUse" color-interpolation-filters="sRGB">
<feFlood flood-opacity="0" result="BackgroundImageFix"></feFlood>
<feBlend mode="normal" in="SourceGraphic" in2="BackgroundImageFix" result="shape"></feBlend>
<feColorMatrix in="SourceAlpha" type="matrix" values="0 0 0 0 0 0 0 0 0 0 0 0 0 0 0 0 0 0 127 0" result="hardAlpha"></feColorMatrix>
<feOffset dx="4" dy="4"></feOffset>
<feGaussianBlur stdDeviation="4"></feGaussianBlur>
<feComposite in2="hardAlpha" operator="arithmetic" k2="-1" k3="1"></feComposite>
<feColorMatrix type="matrix" values="0 0 0 0 0 0 0 0 0 0 0 0 0 0 0 0 0 0 0.3 0"></feColorMatrix>
<feBlend mode="normal" in2="shape" result="effect1_innerShadow_29_13"></feBlend>
</filter>
<filter id="filter1_i_29_13" x="377.768" y="268.706" width="237.838" height="87.926" filterUnits="userSpaceOnUse" color-interpolation-filters="sRGB">
<feFlood flood-opacity="0" result="BackgroundImageFix"></feFlood>
<feBlend mode="normal" in="SourceGraphic" in2="BackgroundImageFix" result="shape"></feBlend>
<feColorMatrix in="SourceAlpha" type="matrix" values="0 0 0 0 0 0 0 0 0 0 0 0 0 0 0 0 0 0 127 0" result="hardAlpha"></feColorMatrix>
<feOffset dx="4" dy="4"></feOffset>
<feGaussianBlur stdDeviation="4"></feGaussianBlur>
<feComposite in2="hardAlpha" operator="arithmetic" k2="-1" k3="1"></feComposite>
<feColorMatrix type="matrix" values="0 0 0 0 0 0 0 0 0 0 0 0 0 0 0 0 0 0 0.3 0"></feColorMatrix>
<feBlend mode="normal" in2="shape" result="effect1_innerShadow_29_13"></feBlend>
</filter>
</defs>
</svg>